# Blender v3.1.2 OBJ File: ''
# www.blender.org
mtllib ennemi1.mtl
o Icosphere
v -0.000001 0.811523 0.005941
v 0.506689 0.154790 -0.367005
v -0.193536 0.156456 -0.594519
v -0.626302 0.152094 0.001114
v -0.193536 0.147735 0.596746
v 0.506689 0.149400 0.369232
v 0.188411 -0.190642 -0.581283
v -0.493270 -0.192264 -0.359797
v -0.493270 -0.197511 0.356943
v 0.188411 -0.199133 0.578430
v 0.609715 -0.194887 -0.001427
v -0.000004 0.060248 0.000441
v -0.080153 0.425184 -0.243581
v 0.209844 0.424494 -0.149356
v 0.174960 0.195611 -0.537048
v 0.566176 0.191668 0.001403
v 0.209844 0.422262 0.155555
v -0.259384 0.423377 0.003100
v -0.458047 0.194105 -0.331377
v -0.080153 0.421572 0.249780
v -0.458047 0.189233 0.334183
v 0.174960 0.187727 0.539854
v 0.951058 0.002262 -0.309004
v 0.951058 -0.002262 0.309004
v 0.000000 0.007321 -0.999973
v 0.587786 0.005923 -0.808995
v -0.951058 0.002262 -0.309004
v -0.587786 0.005923 -0.808995
v -0.587786 -0.005923 0.808995
v -0.951058 -0.002262 0.309004
v 0.587786 -0.005923 0.808995
v 0.000000 -0.007321 0.999973
v 0.467365 -0.217656 -0.341162
v -0.178518 -0.216119 -0.551017
v -0.577696 -0.220141 -0.001612
v -0.178518 -0.224164 0.547793
v 0.467365 -0.222627 0.337939
v 0.097139 -0.259839 -0.300877
v 0.314600 -0.262835 -0.001924
v -0.254522 -0.261481 -0.186838
v -0.254319 -0.263381 0.182849
v 0.097216 -0.265025 0.297272
v -0.383152 -0.115043 0.678394
vt 0.181819 0.000000
vt 0.227273 0.078731
vt 0.136365 0.078731
vt 0.272728 0.157461
vt 0.318182 0.078731
vt 0.363637 0.157461
vt 0.909091 0.000000
vt 0.954545 0.078731
vt 0.863636 0.078731
vt 0.727273 0.000000
vt 0.772727 0.078731
vt 0.681818 0.078731
vt 0.545455 0.000000
vt 0.590909 0.078731
vt 0.500000 0.078731
vt 0.318182 0.236191
vt 0.090910 0.157461
vt 0.181819 0.157461
vt 0.136365 0.236191
vt 0.818182 0.157461
vt 0.909091 0.157461
vt 0.863636 0.236191
vt 0.636364 0.157461
vt 0.727273 0.157461
vt 0.681818 0.236191
vt 0.454546 0.157461
vt 0.545455 0.157461
vt 0.500000 0.236191
vt 0.227273 0.236191
vt 0.045455 0.236191
vt 0.772727 0.236191
vt 0.590909 0.236191
vt 0.409092 0.236191
vt 0.181819 0.314921
vt 0.272728 0.314921
vt 0.210364 0.362419
vt 0.000000 0.314921
vt 0.090910 0.314921
vt 0.028545 0.362419
vt 0.727273 0.314921
vt 0.818182 0.314921
vt 0.755818 0.362419
vt 0.545455 0.314921
vt 0.636364 0.314921
vt 0.574000 0.362419
vt 0.363637 0.314921
vt 0.454546 0.314921
vt 0.392182 0.362419
vt 0.516910 0.362419
vt 0.454546 0.472382
vt 0.698728 0.362419
vt 0.636364 0.472382
vt 0.880546 0.362419
vt 0.818182 0.472382
vt 0.909091 0.314921
vt 0.153274 0.362419
vt 0.090910 0.472382
vt 0.335092 0.362419
vt 0.272728 0.472382
vt 0.659091 0.275556
vt 0.954545 0.236191
vt 1.000000 0.157461
vt 0.409092 0.078731
vt 0.363637 0.000000
vn 0.2718 0.4817 -0.8331
vn 0.5892 0.7890 -0.1741
vn -0.7117 0.4793 -0.5136
vn -0.7117 0.4718 0.5205
vn 0.2718 0.4694 0.8401
vn 0.3383 0.9294 -0.1477
vn -0.0424 0.9310 -0.3626
vn -0.3645 0.9288 -0.0671
vn -0.1829 0.9259 0.3306
vn 0.2514 0.9263 0.2808
vn 0.3431 0.9074 -0.2427
vn -0.1311 0.9085 -0.3967
vn -0.4241 0.9056 0.0066
vn -0.1311 0.9026 0.4100
vn 0.3431 0.9037 0.2559
vn 0.0879 -0.9734 -0.2116
vn -0.1688 -0.9732 -0.1564
vn -0.1913 -0.9757 0.1066
vn 0.0488 -0.9759 0.2129
vn 0.2243 -0.9744 0.0144
vn -0.6355 -0.6154 -0.4662
vn 0.1060 -0.9919 0.0697
vn 0.0898 -0.9758 0.1995
vn 0.2418 -0.6137 -0.7516
vn -0.0422 -0.9924 0.1154
vn -0.1673 -0.9760 0.1396
vn 0.7853 -0.6191 -0.0036
vn -0.1297 -0.9915 -0.0050
vn -0.1942 -0.9734 -0.1215
vn 0.2435 -0.6246 0.7420
vn -0.0380 -0.9906 -0.1313
vn 0.0491 -0.9733 -0.2242
vn -0.6358 -0.6225 0.4563
vn 0.1036 -0.9910 -0.0853
vn 0.2243 -0.9741 -0.0287
vn 0.4175 -0.9030 0.1013
vn 0.4109 -0.8636 0.2922
vn 0.2316 -0.9049 0.3571
vn 0.0264 -0.9054 0.4238
vn -0.1570 -0.8649 0.4767
vn -0.2743 -0.9047 0.3261
vn -0.4012 -0.9034 0.1515
vn -0.5079 -0.8614 -0.0063
vn -0.4012 -0.9011 -0.1647
vn -0.2743 -0.8998 -0.3393
vn -0.1570 -0.8578 -0.4893
vn 0.0264 -0.8991 -0.4370
vn 0.2316 -0.8996 -0.3703
vn 0.4109 -0.8592 -0.3048
vn 0.4175 -0.9014 -0.1145
vn 0.1532 -0.8718 0.4652
vn 0.1378 0.8920 0.4305
vn -0.0424 0.9256 0.3762
vn -0.4011 -0.8705 0.2851
vn -0.3607 0.8932 0.2686
vn -0.3645 0.9277 0.0807
vn -0.4011 -0.8663 -0.2978
vn -0.3607 0.8970 -0.2555
vn -0.1829 0.9306 -0.3170
vn 0.1532 -0.8649 -0.4779
vn 0.1378 0.8982 -0.4174
vn 0.2514 0.9303 -0.2672
vn 0.4958 -0.8684 -0.0064
vn 0.4458 0.8951 0.0066
vn 0.3383 0.9271 0.1612
vn 0.3532 0.7840 0.5105
vn 0.1685 0.8345 0.5246
vn 0.0110 0.7832 0.6217
vn -0.3709 0.7841 0.4976
vn -0.4410 0.8360 0.3266
vn -0.5824 0.7862 0.2065
vn -0.5824 0.7892 -0.1950
vn -0.4410 0.8407 -0.3143
vn -0.3709 0.7913 -0.4861
vn 0.5892 0.7864 0.1857
vn 0.5452 0.8383 0.0061
vn 0.8797 0.4756 0.0035
vn 0.0110 0.7922 -0.6102
vn 0.1685 0.8421 -0.5123
vn 0.3532 0.7914 -0.4990
usemtl Material.001
s off
f 1/1/1 14/2/1 13/3/1
f 2/4/2 14/5/2 16/6/2
f 1/7/3 13/8/3 18/9/3
f 1/10/4 18/11/4 20/12/4
f 1/13/5 20/14/5 17/15/5
f 2/4/6 16/6/6 23/16/6
f 3/17/7 15/18/7 25/19/7
f 4/20/8 19/21/8 27/22/8
f 5/23/9 21/24/9 29/25/9
f 6/26/10 22/27/10 31/28/10
f 2/4/11 23/16/11 26/29/11
f 3/17/12 25/19/12 28/30/12
f 4/20/13 27/22/13 30/31/13
f 5/23/14 29/25/14 32/32/14
f 6/26/15 31/28/15 24/33/15
f 7/34/16 33/35/16 38/36/16
f 8/37/17 34/38/17 40/39/17
f 9/40/18 35/41/18 41/42/18
f 10/43/19 36/44/19 42/45/19
f 11/46/20 37/47/20 39/48/20
f 39/48/21 42/49/21 12/50/21
f 39/48/22 37/47/22 42/49/22
f 37/47/23 10/43/23 42/49/23
f 42/45/24 41/51/24 12/52/24
f 42/45/25 36/44/25 41/51/25
f 36/44/26 9/40/26 41/51/26
f 41/42/27 40/53/27 12/54/27
f 41/42/28 35/41/28 40/53/28
f 35/41/29 8/55/29 40/53/29
f 40/39/30 38/56/30 12/57/30
f 40/39/31 34/38/31 38/56/31
f 34/38/32 7/34/32 38/56/32
f 38/36/33 39/58/33 12/59/33
f 38/36/34 33/35/34 39/58/34
f 33/35/35 11/46/35 39/58/35
f 24/33/36 37/47/36 11/46/36
f 24/33/37 31/28/37 37/47/37
f 31/28/38 10/43/38 37/47/38
f 32/32/39 36/44/39 10/43/39
f 32/32/40 29/25/40 43/60/40 36/44/40
f 29/25/41 9/40/41 36/44/41 43/60/41
f 30/31/42 35/41/42 9/40/42
f 30/31/43 27/22/43 35/41/43
f 27/22/44 8/55/44 35/41/44
f 28/30/45 34/38/45 8/37/45
f 28/30/46 25/19/46 34/38/46
f 25/19/47 7/34/47 34/38/47
f 26/29/48 33/35/48 7/34/48
f 26/29/49 23/16/49 33/35/49
f 23/16/50 11/46/50 33/35/50
f 31/28/51 32/32/51 10/43/51
f 31/28/52 22/27/52 32/32/52
f 22/27/53 5/23/53 32/32/53
f 29/25/54 30/31/54 9/40/54
f 29/25/55 21/24/55 30/31/55
f 21/24/56 4/20/56 30/31/56
f 27/22/57 28/61/57 8/55/57
f 27/22/58 19/21/58 28/61/58
f 19/21/59 3/62/59 28/61/59
f 25/19/60 26/29/60 7/34/60
f 25/19/61 15/18/61 26/29/61
f 15/18/62 2/4/62 26/29/62
f 23/16/63 24/33/63 11/46/63
f 23/16/64 16/6/64 24/33/64
f 16/6/65 6/26/65 24/33/65
f 17/15/66 22/27/66 6/26/66
f 17/15/67 20/14/67 22/27/67
f 20/14/68 5/23/68 22/27/68
f 20/12/69 21/24/69 5/23/69
f 20/12/70 18/11/70 21/24/70
f 18/11/71 4/20/71 21/24/71
f 18/9/72 19/21/72 4/20/72
f 18/9/73 13/8/73 19/21/73
f 13/8/74 3/62/74 19/21/74
f 16/6/75 17/63/75 6/26/75
f 16/6/76 14/5/76 17/63/76
f 14/5/77 1/64/77 17/63/77
f 13/3/78 15/18/78 3/17/78
f 13/3/79 14/2/79 15/18/79
f 14/2/80 2/4/80 15/18/80
